<svg xmlns="http://www.w3.org/2000/svg" version="1.1">
    
    <defs>

        <svg version="1.1" id="Capa_1" xmlns="http://www.w3.org/2000/svg" xmlns:xlink="http://www.w3.org/1999/xlink"
	 width="25px" height="25px" viewBox="0 0 25 25" xml:space="preserve">
        <g>
            <path d="M477.364,127.481c-22.839-28.072-53.864-50.248-93.072-66.522c-39.208-16.274-82.036-24.41-128.479-24.41
                c-46.442,0-89.269,8.136-128.478,24.41c-39.209,16.274-70.233,38.446-93.074,66.522C11.419,155.555,0,186.15,0,219.269
                c0,28.549,8.61,55.299,25.837,80.232c17.227,24.934,40.778,45.874,70.664,62.813c-2.096,7.611-4.57,14.842-7.426,21.7
                c-2.855,6.851-5.424,12.467-7.708,16.847c-2.286,4.374-5.376,9.23-9.281,14.555c-3.899,5.332-6.849,9.093-8.848,11.283
                c-1.997,2.19-5.28,5.801-9.851,10.848c-4.565,5.041-7.517,8.33-8.848,9.853c-0.193,0.097-0.953,0.948-2.285,2.574
                c-1.331,1.615-1.999,2.419-1.999,2.419l-1.713,2.57c-0.953,1.42-1.381,2.327-1.287,2.703c0.096,0.384-0.094,1.335-0.57,2.854
                c-0.477,1.526-0.428,2.669,0.142,3.429v0.287c0.762,3.234,2.283,5.853,4.567,7.851c2.284,1.992,4.858,2.991,7.71,2.991h1.429
                c12.375-1.526,23.223-3.613,32.548-6.279c49.87-12.751,93.649-35.782,131.334-69.094c14.274,1.523,28.074,2.283,41.396,2.283
                c46.442,0,89.271-8.135,128.479-24.414c39.208-16.276,70.233-38.444,93.072-66.517c22.843-28.072,34.263-58.67,34.263-91.789
                C511.626,186.154,500.207,155.555,477.364,127.481z M445.244,292.075c-19.896,22.456-46.733,40.303-80.517,53.529
                c-33.784,13.223-70.093,19.842-108.921,19.842c-11.609,0-23.98-0.76-37.113-2.286l-16.274-1.708l-12.277,10.852
                c-23.408,20.558-49.582,36.829-78.513,48.821c8.754-15.414,15.416-31.785,19.986-49.102l7.708-27.412l-24.838-14.27
                c-24.744-14.093-43.918-30.793-57.53-50.114c-13.61-19.315-20.412-39.638-20.412-60.954c0-26.077,9.945-50.343,29.834-72.803
                c19.895-22.458,46.729-40.303,80.515-53.531c33.786-13.229,70.089-19.849,108.92-19.849c38.828,0,75.13,6.617,108.914,19.845
                c33.783,13.229,60.62,31.073,80.517,53.531c19.89,22.46,29.834,46.727,29.834,72.802S465.133,269.615,445.244,292.075z"/>
        </g>
    </svg>
        <svg id="icon-comment" width="20" height="20" viewBox="0 0 16 16" xmlns="http://www.w3.org/2000/svg" version="1.1">
                <path d="M896 384q-204 0-381.5 69.5t-282 187.5-104.5 255q0 112 71.5 213.5t201.5 175.5l87 50-27 96q-24 91-70 172 152-63 275-171l43-38 57 6q69 8 130 8 204 0 381.5-69.5t282-187.5 104.5-255-104.5-255-282-187.5-381.5-69.5zm896 512q0 174-120 321.5t-326 233-450 85.5q-70 0-145-8-198 175-460 242-49 14-114 22h-5q-15 0-27-10.5t-16-27.5v-1q-3-4-.5-12t2-10 4.5-9.5l6-9 7-8.5 8-9q7-8 31-34.5t34.5-38 31-39.5 32.5-51 27-59 26-76q-157-89-247.5-220t-90.5-281q0-174 120-321.5t326-233 450-85.5 450 85.5 326 233 120 321.5z" fill="#ff0000"/>
        </svg>

        <svg id="icon-search" viewBox="0 0 17 16" xmlns="http://www.w3.org/2000/svg" version="1.1">
            <g stroke="none" stroke-width="1">
                <g transform="translate(1.000000, 0.000000)">
                    <path d="M16,5.954 C16,2.665 13.317,0 10.009,0 C6.698,0 4.016,2.665 4.016,5.954 C4.016,9.241 6.699,11.906 10.009,11.906 C13.317,11.906 16,9.241 16,5.954 L16,5.954 Z M4.934,6.019 C4.934,3.213 7.213,0.943 10.026,0.943 C12.837,0.943 15.114,3.214 15.114,6.019 C15.114,8.823 12.837,11.094 10.026,11.094 C7.213,11.094 4.934,8.822 4.934,6.019 L4.934,6.019 Z" class="si-glyph-fill"></path>
                    <path d="M1.822,15.964 L0,14.142 L4.037,10.104 C4.037,10.104 4.133,10.869 4.617,11.351 C5.099,11.835 5.859,11.927 5.859,11.927 L1.822,15.964 L1.822,15.964 Z" class="si-glyph-fill"></path>
                    <path d="M13.398,5.073 C13.398,5.645 13.838,5.429 13.838,4.634 C13.838,3.264 12.729,2.154 11.359,2.154 C10.562,2.154 10.347,2.593 10.92,2.593 C12.29,2.593 13.398,3.704 13.398,5.073 L13.398,5.073 Z" class="si-glyph-fill"></path>
                </g>
            </g>
        </svg>
        
        <svg id="icon-order-list" viewBox="0 0 17 16" xmlns="http://www.w3.org/2000/svg" version="1.1">
            <g stroke="none" stroke-width="1" fill-rule="evenodd"><g transform="translate(1.000000, 1.000000)"><rect x="0" y="0" width="2" height="2" class="si-glyph-fill"></rect><rect x="0" y="5" width="2" height="2" class="si-glyph-fill"></rect><rect x="0" y="10" width="2" height="2" class="si-glyph-fill"></rect><rect x="5" y="1" width="11" height="1" class="si-glyph-fill"></rect><rect x="5" y="6" width="11" height="1" class="si-glyph-fill"></rect><rect x="5" y="11" width="11" height="1" class="si-glyph-fill"></rect></g></g>
        </svg>

        <svg id="icon-order-table" viewBox="0 0 16 16" xmlns="http://www.w3.org/2000/svg" version="1.1">
            <g stroke="none" stroke-width="1" fill-rule="evenodd">
                <g transform="translate(1.000000, 1.000000)">
                    <path d="M13.878,2.639 C13.878,3.274 13.429,3.791 12.874,3.791 L11.003,3.791 C10.45,3.791 10,3.273 10,2.639 L10,1.15 C10,0.515 10.45,0 11.003,0 L12.874,0 C13.429,0 13.878,0.516 13.878,1.15 L13.878,2.639 L13.878,2.639 Z" class="si-glyph-fill"></path>
                    <path d="M8.878,2.639 C8.878,3.274 8.429,3.791 7.874,3.791 L6.003,3.791 C5.45,3.791 5,3.273 5,2.639 L5,1.15 C5,0.515 5.45,0 6.003,0 L7.874,0 C8.429,0 8.878,0.516 8.878,1.15 L8.878,2.639 L8.878,2.639 Z" class="si-glyph-fill"></path>
                    <path d="M3.878,2.639 C3.878,3.274 3.429,3.791 2.874,3.791 L1.003,3.791 C0.45,3.791 0,3.273 0,2.639 L0,1.15 C0,0.515 0.45,0 1.003,0 L2.874,0 C3.429,0 3.878,0.516 3.878,1.15 L3.878,2.639 L3.878,2.639 Z" class="si-glyph-fill"></path>
                    <path d="M13.878,7.639 C13.878,8.274 13.429,8.791 12.874,8.791 L11.003,8.791 C10.45,8.791 10,8.273 10,7.639 L10,6.15 C10,5.515 10.45,5 11.003,5 L12.874,5 C13.429,5 13.878,5.516 13.878,6.15 L13.878,7.639 L13.878,7.639 Z" class="si-glyph-fill"></path>
                    <path d="M8.878,7.639 C8.878,8.274 8.429,8.791 7.874,8.791 L6.003,8.791 C5.45,8.791 5,8.273 5,7.639 L5,6.15 C5,5.515 5.45,5 6.003,5 L7.874,5 C8.429,5 8.878,5.516 8.878,6.15 L8.878,7.639 L8.878,7.639 Z" class="si-glyph-fill"></path>
                    <path d="M3.878,7.639 C3.878,8.274 3.429,8.791 2.874,8.791 L1.003,8.791 C0.45,8.791 0,8.273 0,7.639 L0,6.15 C0,5.515 0.45,5 1.003,5 L2.874,5 C3.429,5 3.878,5.516 3.878,6.15 L3.878,7.639 L3.878,7.639 Z" class="si-glyph-fill"></path>
                    <path d="M13.878,12.639 C13.878,13.274 13.429,13.791 12.874,13.791 L11.003,13.791 C10.45,13.791 10,13.273 10,12.639 L10,11.15 C10,10.515 10.45,10 11.003,10 L12.874,10 C13.429,10 13.878,10.516 13.878,11.15 L13.878,12.639 L13.878,12.639 Z" class="si-glyph-fill"></path>
                    <path d="M8.878,12.639 C8.878,13.274 8.429,13.791 7.874,13.791 L6.003,13.791 C5.45,13.791 5,13.273 5,12.639 L5,11.15 C5,10.515 5.45,10 6.003,10 L7.874,10 C8.429,10 8.878,10.516 8.878,11.15 L8.878,12.639 L8.878,12.639 Z" class="si-glyph-fill"></path>
                    <path d="M3.878,12.639 C3.878,13.274 3.429,13.791 2.874,13.791 L1.003,13.791 C0.45,13.791 0,13.273 0,12.639 L0,11.15 C0,10.515 0.45,10 1.003,10 L2.874,10 C3.429,10 3.878,10.516 3.878,11.15 L3.878,12.639 L3.878,12.639 Z" class="si-glyph-fill"></path>
                </g>
            </g>
        </svg>

        

    </defs>

</svg>